<svg xmlns="http://www.w3.org/2000/svg" viewBox="0 0 1600 900" role="img" aria-label="Industrial shoreline with port cranes and containers">
  <defs>
    <linearGradient id="sky" x1="0" y1="0" x2="0" y2="1">
      <stop offset="0%" stop-color="#ffb46c"/>
      <stop offset="55%" stop-color="#f28a2a"/>
      <stop offset="100%" stop-color="#b54f11"/>
    </linearGradient>
    <linearGradient id="sea" x1="0" y1="0" x2="1" y2="0">
      <stop offset="0%" stop-color="#7a300f"/>
      <stop offset="100%" stop-color="#3f1808"/>
    </linearGradient>
    <linearGradient id="dock" x1="0" y1="0" x2="0" y2="1">
      <stop offset="0%" stop-color="#3b1a0f"/>
      <stop offset="100%" stop-color="#1f0d07"/>
    </linearGradient>
  </defs>

  <rect width="1600" height="900" fill="url(#sky)"/>
  <circle cx="1180" cy="180" r="84" fill="#ffd6a4" opacity="0.72"/>

  <path d="M0 450 L230 420 L420 438 L610 410 L880 435 L1130 405 L1370 420 L1600 400 L1600 900 L0 900 Z" fill="url(#sea)" opacity="0.82"/>
  <path d="M0 550 L230 520 L450 550 L700 520 L950 560 L1220 530 L1600 560 L1600 900 L0 900 Z" fill="#2a1108" opacity="0.8"/>

  <rect x="0" y="610" width="1600" height="290" fill="url(#dock)"/>

  <g opacity="0.92" fill="#1a0a05">
    <rect x="180" y="530" width="18" height="190"/>
    <rect x="322" y="500" width="18" height="220"/>
    <rect x="460" y="515" width="18" height="205"/>
    <rect x="626" y="495" width="18" height="225"/>
    <rect x="812" y="510" width="18" height="210"/>
    <rect x="980" y="500" width="18" height="220"/>
  </g>

  <g stroke="#240d06" stroke-width="16" fill="none" opacity="0.9">
    <path d="M189 538 L275 470 L332 470"/>
    <path d="M331 508 L398 448 L467 448"/>
    <path d="M469 523 L545 455 L635 455"/>
    <path d="M635 503 L716 442 L824 442"/>
    <path d="M821 518 L900 452 L988 452"/>
  </g>

  <g fill="#6f2f12">
    <rect x="1120" y="660" width="120" height="55"/>
    <rect x="1248" y="660" width="120" height="55"/>
    <rect x="1376" y="660" width="120" height="55"/>

    <rect x="1160" y="595" width="120" height="55"/>
    <rect x="1288" y="595" width="120" height="55"/>

    <rect x="410" y="665" width="110" height="48"/>
    <rect x="530" y="665" width="110" height="48"/>
    <rect x="650" y="665" width="110" height="48"/>
  </g>

  <g fill="#9f471a" opacity="0.92">
    <rect x="1140" y="685" width="12" height="8"/>
    <rect x="1160" y="685" width="12" height="8"/>
    <rect x="1180" y="685" width="12" height="8"/>
    <rect x="1200" y="685" width="12" height="8"/>
    <rect x="1220" y="685" width="12" height="8"/>

    <rect x="1268" y="685" width="12" height="8"/>
    <rect x="1288" y="685" width="12" height="8"/>
    <rect x="1308" y="685" width="12" height="8"/>
    <rect x="1328" y="685" width="12" height="8"/>
    <rect x="1348" y="685" width="12" height="8"/>
  </g>
</svg>
